<svg width="80" height="80" viewBox="0 0 80 80" fill="none" xmlns="http://www.w3.org/2000/svg">
<rect x="0.5" y="0.5" width="79" height="79" rx="11.5" fill="url(#paint0_linear_31_3941)"/>
<rect x="0.5" y="0.5" width="79" height="79" rx="11.5" stroke="url(#paint1_linear_31_3941)"/>
<path d="M32.5293 51.308C30.5693 51.308 29.0107 50.7573 27.8533 49.656C26.7147 48.536 26.1453 47.0333 26.1453 45.148V37.252C26.1453 35.3853 26.7147 33.9107 27.8533 32.828C29.0107 31.7267 30.5693 31.176 32.5293 31.176C34.4893 31.176 36.048 31.7267 37.2053 32.828C38.3813 33.9107 38.9693 35.3853 38.9693 37.252V45.148C38.9693 47.0333 38.3813 48.536 37.2053 49.656C36.048 50.7573 34.4893 51.308 32.5293 51.308ZM32.5293 48.48C33.5 48.48 34.2747 48.2 34.8533 47.64C35.432 47.0613 35.7213 46.2867 35.7213 45.316V37.14C35.7213 36.1693 35.432 35.404 34.8533 34.844C34.2747 34.2653 33.5 33.976 32.5293 33.976C31.5773 33.976 30.812 34.2653 30.2333 34.844C29.6733 35.404 29.3933 36.1693 29.3933 37.14V45.316C29.3933 46.2867 29.6733 47.0613 30.2333 47.64C30.812 48.2 31.5773 48.48 32.5293 48.48ZM53.3994 41.676C53.7727 42.572 53.9594 43.5987 53.9594 44.756C53.9594 45.8013 53.8007 46.7253 53.4834 47.528C53.0541 48.704 52.3447 49.6187 51.3554 50.272C50.3661 50.9067 49.1714 51.224 47.7714 51.224C46.3901 51.224 45.1861 50.8787 44.1594 50.188C43.1514 49.4787 42.4327 48.5267 42.0034 47.332C41.7794 46.7533 41.6487 45.9973 41.6114 45.064C41.6114 44.84 41.7234 44.728 41.9474 44.728H44.5514C44.7754 44.728 44.8874 44.84 44.8874 45.064C44.9247 45.6613 45.0181 46.1373 45.1674 46.492C45.3354 47.0893 45.6434 47.5653 46.0914 47.92C46.5581 48.256 47.1181 48.424 47.7714 48.424C49.0034 48.424 49.8527 47.864 50.3194 46.744C50.5621 46.2027 50.6834 45.5027 50.6834 44.644C50.6834 43.692 50.5434 42.908 50.2634 42.292C49.7781 41.2467 48.9381 40.724 47.7434 40.724C47.4261 40.724 46.9967 40.9107 46.4554 41.284C46.3807 41.3213 46.3154 41.34 46.2594 41.34C46.1661 41.34 46.0727 41.284 45.9794 41.172L44.6914 39.38C44.6354 39.2867 44.6074 39.212 44.6074 39.156C44.6074 39.0627 44.6447 38.9787 44.7194 38.904L49.3394 34.368C49.3767 34.3307 49.3861 34.2933 49.3674 34.256C49.3487 34.2187 49.3114 34.2 49.2554 34.2H42.2554C42.1621 34.2 42.0781 34.172 42.0034 34.116C41.9474 34.0413 41.9194 33.9573 41.9194 33.864V31.736C41.9194 31.6427 41.9474 31.568 42.0034 31.512C42.0781 31.4373 42.1621 31.4 42.2554 31.4H53.4274C53.5207 31.4 53.5954 31.4373 53.6514 31.512C53.7261 31.568 53.7634 31.6427 53.7634 31.736V34.172C53.7634 34.34 53.7074 34.48 53.5954 34.592L49.5914 38.624C49.5167 38.6987 49.5541 38.7547 49.7034 38.792C51.4394 39.0347 52.6714 39.996 53.3994 41.676Z" fill="white"/>
<defs>
<linearGradient id="paint0_linear_31_3941" x1="40" y1="0" x2="40" y2="80" gradientUnits="userSpaceOnUse">
<stop stop-color="#242424"/>
<stop offset="1" stop-color="#242424" stop-opacity="0"/>
</linearGradient>
<linearGradient id="paint1_linear_31_3941" x1="40" y1="0" x2="40" y2="80" gradientUnits="userSpaceOnUse">
<stop stop-color="#2E2E2E"/>
<stop offset="1" stop-color="#2E2E2E" stop-opacity="0"/>
</linearGradient>
</defs>
</svg>
