<svg width="80" height="80" viewBox="0 0 80 80" fill="none" xmlns="http://www.w3.org/2000/svg">
<rect x="0.5" y="0.5" width="79" height="79" rx="11.5" fill="url(#paint0_linear_31_3935)"/>
<rect x="0.5" y="0.5" width="79" height="79" rx="11.5" stroke="url(#paint1_linear_31_3935)"/>
<path d="M32.2559 51.308C30.2959 51.308 28.7372 50.7573 27.5799 49.656C26.4412 48.536 25.8719 47.0333 25.8719 45.148V37.252C25.8719 35.3853 26.4412 33.9107 27.5799 32.828C28.7372 31.7267 30.2959 31.176 32.2559 31.176C34.2159 31.176 35.7746 31.7267 36.9319 32.828C38.1079 33.9107 38.6959 35.3853 38.6959 37.252V45.148C38.6959 47.0333 38.1079 48.536 36.9319 49.656C35.7746 50.7573 34.2159 51.308 32.2559 51.308ZM32.2559 48.48C33.2266 48.48 34.0012 48.2 34.5799 47.64C35.1586 47.0613 35.4479 46.2867 35.4479 45.316V37.14C35.4479 36.1693 35.1586 35.404 34.5799 34.844C34.0012 34.2653 33.2266 33.976 32.2559 33.976C31.3039 33.976 30.5386 34.2653 29.9599 34.844C29.3999 35.404 29.1199 36.1693 29.1199 37.14V45.316C29.1199 46.2867 29.3999 47.0613 29.9599 47.64C30.5386 48.2 31.3039 48.48 32.2559 48.48ZM45.986 48.032C45.9486 48.0693 45.93 48.1067 45.93 48.144C45.9486 48.1813 45.986 48.2 46.042 48.2H54.022C54.1153 48.2 54.19 48.2373 54.246 48.312C54.3206 48.368 54.358 48.4427 54.358 48.536V50.664C54.358 50.7573 54.3206 50.8413 54.246 50.916C54.19 50.972 54.1153 51 54.022 51H41.982C41.8886 51 41.8046 50.972 41.73 50.916C41.674 50.8413 41.646 50.7573 41.646 50.664V48.648C41.646 48.48 41.702 48.34 41.814 48.228C43.2326 46.716 44.8753 44.8587 46.742 42.656L48.058 41.116C49.7753 39.1187 50.634 37.6067 50.634 36.58C50.634 35.8147 50.3633 35.1893 49.822 34.704C49.2806 34.2187 48.5806 33.976 47.722 33.976C46.8633 33.976 46.1633 34.2187 45.622 34.704C45.0993 35.1893 44.838 35.8333 44.838 36.636V37.364C44.838 37.4573 44.8006 37.5413 44.726 37.616C44.67 37.672 44.5953 37.7 44.502 37.7H41.898C41.8046 37.7 41.7206 37.672 41.646 37.616C41.59 37.5413 41.562 37.4573 41.562 37.364V36.16C41.5993 35.152 41.8886 34.2747 42.43 33.528C42.9713 32.7813 43.6993 32.2027 44.614 31.792C45.5473 31.3813 46.5833 31.176 47.722 31.176C48.9726 31.176 50.0646 31.4093 50.998 31.876C51.9313 32.3427 52.65 32.9867 53.154 33.808C53.658 34.6107 53.91 35.516 53.91 36.524C53.91 38.0547 53.098 39.8187 51.474 41.816C50.578 42.936 49.1033 44.616 47.05 46.856L45.986 48.032Z" fill="white"/>
<defs>
<linearGradient id="paint0_linear_31_3935" x1="40" y1="0" x2="40" y2="80" gradientUnits="userSpaceOnUse">
<stop stop-color="#242424"/>
<stop offset="1" stop-color="#242424" stop-opacity="0"/>
</linearGradient>
<linearGradient id="paint1_linear_31_3935" x1="40" y1="0" x2="40" y2="80" gradientUnits="userSpaceOnUse">
<stop stop-color="#2E2E2E"/>
<stop offset="1" stop-color="#2E2E2E" stop-opacity="0"/>
</linearGradient>
</defs>
</svg>
