<svg width="80" height="80" viewBox="0 0 80 80" fill="none" xmlns="http://www.w3.org/2000/svg">
<rect x="0.5" y="0.5" width="79" height="79" rx="11.5" fill="url(#paint0_linear_31_3926)"/>
<rect x="0.5" y="0.5" width="79" height="79" rx="11.5" stroke="url(#paint1_linear_31_3926)"/>
<path d="M35.2637 51.308C33.3037 51.308 31.7451 50.7573 30.5877 49.656C29.4491 48.536 28.8797 47.0333 28.8797 45.148V37.252C28.8797 35.3853 29.4491 33.9107 30.5877 32.828C31.7451 31.7267 33.3037 31.176 35.2637 31.176C37.2237 31.176 38.7824 31.7267 39.9397 32.828C41.1157 33.9107 41.7037 35.3853 41.7037 37.252V45.148C41.7037 47.0333 41.1157 48.536 39.9397 49.656C38.7824 50.7573 37.2237 51.308 35.2637 51.308ZM35.2637 48.48C36.2344 48.48 37.0091 48.2 37.5877 47.64C38.1664 47.0613 38.4557 46.2867 38.4557 45.316V37.14C38.4557 36.1693 38.1664 35.404 37.5877 34.844C37.0091 34.2653 36.2344 33.976 35.2637 33.976C34.3117 33.976 33.5464 34.2653 32.9677 34.844C32.4077 35.404 32.1277 36.1693 32.1277 37.14V45.316C32.1277 46.2867 32.4077 47.0613 32.9677 47.64C33.5464 48.2 34.3117 48.48 35.2637 48.48ZM47.2689 31.484C47.4183 31.428 47.5583 31.4 47.6889 31.4H50.3769C50.4703 31.4 50.5449 31.4373 50.6009 31.512C50.6756 31.568 50.7129 31.6427 50.7129 31.736V50.664C50.7129 50.7573 50.6756 50.8413 50.6009 50.916C50.5449 50.972 50.4703 51 50.3769 51H47.8009C47.7076 51 47.6236 50.972 47.5489 50.916C47.4929 50.8413 47.4649 50.7573 47.4649 50.664V34.76C47.4649 34.7227 47.4463 34.6947 47.4089 34.676C47.3716 34.6387 47.3343 34.6293 47.2969 34.648L44.4969 35.516C44.4596 35.5347 44.4129 35.544 44.3569 35.544C44.2823 35.544 44.2169 35.516 44.1609 35.46C44.1236 35.404 44.1049 35.3293 44.1049 35.236L44.0209 33.388C44.0209 33.2013 44.0956 33.0707 44.2449 32.996L47.2689 31.484Z" fill="#0A84FF"/>
<defs>
<linearGradient id="paint0_linear_31_3926" x1="40" y1="0" x2="40" y2="80" gradientUnits="userSpaceOnUse">
<stop stop-color="#242424"/>
<stop offset="1" stop-color="#242424" stop-opacity="0"/>
</linearGradient>
<linearGradient id="paint1_linear_31_3926" x1="40" y1="0" x2="40" y2="80" gradientUnits="userSpaceOnUse">
<stop stop-color="#2E2E2E"/>
<stop offset="1" stop-color="#2E2E2E" stop-opacity="0"/>
</linearGradient>
</defs>
</svg>
