<svg width="80" height="80" viewBox="0 0 80 80" fill="none" xmlns="http://www.w3.org/2000/svg">
<rect x="0.5" y="0.5" width="79" height="79" rx="11.5" fill="url(#paint0_linear_31_3947)"/>
<rect x="0.5" y="0.5" width="79" height="79" rx="11.5" stroke="url(#paint1_linear_31_3947)"/>
<path d="M31.7774 51.308C29.8174 51.308 28.2587 50.7573 27.1014 49.656C25.9627 48.536 25.3934 47.0333 25.3934 45.148V37.252C25.3934 35.3853 25.9627 33.9107 27.1014 32.828C28.2587 31.7267 29.8174 31.176 31.7774 31.176C33.7374 31.176 35.2961 31.7267 36.4534 32.828C37.6294 33.9107 38.2174 35.3853 38.2174 37.252V45.148C38.2174 47.0333 37.6294 48.536 36.4534 49.656C35.2961 50.7573 33.7374 51.308 31.7774 51.308ZM31.7774 48.48C32.7481 48.48 33.5227 48.2 34.1014 47.64C34.6801 47.0613 34.9694 46.2867 34.9694 45.316V37.14C34.9694 36.1693 34.6801 35.404 34.1014 34.844C33.5227 34.2653 32.7481 33.976 31.7774 33.976C30.8254 33.976 30.0601 34.2653 29.4814 34.844C28.9214 35.404 28.6414 36.1693 28.6414 37.14V45.316C28.6414 46.2867 28.9214 47.0613 29.4814 47.64C30.0601 48.2 30.8254 48.48 31.7774 48.48ZM54.3835 42.936C54.4768 42.936 54.5515 42.9733 54.6075 43.048C54.6821 43.104 54.7195 43.1787 54.7195 43.272V45.512C54.7195 45.6053 54.6821 45.6893 54.6075 45.764C54.5515 45.82 54.4768 45.848 54.3835 45.848H53.2075C53.1141 45.848 53.0675 45.8947 53.0675 45.988V50.664C53.0675 50.7573 53.0301 50.8413 52.9555 50.916C52.8995 50.972 52.8248 51 52.7315 51H50.1555C50.0621 51 49.9781 50.972 49.9035 50.916C49.8475 50.8413 49.8195 50.7573 49.8195 50.664V45.988C49.8195 45.8947 49.7728 45.848 49.6795 45.848H41.1675C41.0741 45.848 40.9901 45.82 40.9155 45.764C40.8595 45.6893 40.8315 45.6053 40.8315 45.512V43.72C40.8315 43.608 40.8595 43.468 40.9155 43.3L46.2075 31.652C46.2821 31.484 46.4128 31.4 46.5995 31.4H49.3435C49.4741 31.4 49.5581 31.4373 49.5955 31.512C49.6515 31.568 49.6515 31.6613 49.5955 31.792L44.6115 42.768C44.5928 42.8053 44.5928 42.8427 44.6115 42.88C44.6301 42.9173 44.6581 42.936 44.6955 42.936H49.6795C49.7728 42.936 49.8195 42.8893 49.8195 42.796V38.988C49.8195 38.8947 49.8475 38.82 49.9035 38.764C49.9781 38.6893 50.0621 38.652 50.1555 38.652H52.7315C52.8248 38.652 52.8995 38.6893 52.9555 38.764C53.0301 38.82 53.0675 38.8947 53.0675 38.988V42.796C53.0675 42.8893 53.1141 42.936 53.2075 42.936H54.3835Z" fill="white"/>
<defs>
<linearGradient id="paint0_linear_31_3947" x1="40" y1="0" x2="40" y2="80" gradientUnits="userSpaceOnUse">
<stop stop-color="#242424"/>
<stop offset="1" stop-color="#242424" stop-opacity="0"/>
</linearGradient>
<linearGradient id="paint1_linear_31_3947" x1="40" y1="0" x2="40" y2="80" gradientUnits="userSpaceOnUse">
<stop stop-color="#2E2E2E"/>
<stop offset="1" stop-color="#2E2E2E" stop-opacity="0"/>
</linearGradient>
</defs>
</svg>
