<svg width="80" height="80" viewBox="0 0 80 80" fill="none" xmlns="http://www.w3.org/2000/svg">
<rect x="0.5" y="0.5" width="79" height="79" rx="11.5" fill="url(#paint0_linear_31_3953)"/>
<rect x="0.5" y="0.5" width="79" height="79" rx="11.5" stroke="url(#paint1_linear_31_3953)"/>
<path d="M32.543 51.308C30.583 51.308 29.0244 50.7573 27.867 49.656C26.7284 48.536 26.159 47.0333 26.159 45.148V37.252C26.159 35.3853 26.7284 33.9107 27.867 32.828C29.0244 31.7267 30.583 31.176 32.543 31.176C34.503 31.176 36.0617 31.7267 37.219 32.828C38.395 33.9107 38.983 35.3853 38.983 37.252V45.148C38.983 47.0333 38.395 48.536 37.219 49.656C36.0617 50.7573 34.503 51.308 32.543 51.308ZM32.543 48.48C33.5137 48.48 34.2884 48.2 34.867 47.64C35.4457 47.0613 35.735 46.2867 35.735 45.316V37.14C35.735 36.1693 35.4457 35.404 34.867 34.844C34.2884 34.2653 33.5137 33.976 32.543 33.976C31.591 33.976 30.8257 34.2653 30.247 34.844C29.687 35.404 29.407 36.1693 29.407 37.14V45.316C29.407 46.2867 29.687 47.0613 30.247 47.64C30.8257 48.2 31.591 48.48 32.543 48.48ZM53.9171 42.208C54.1597 43.048 54.2811 43.916 54.2811 44.812C54.2811 45.6893 54.1597 46.52 53.9171 47.304C53.5251 48.4987 52.8064 49.4507 51.7611 50.16C50.7157 50.8507 49.4931 51.196 48.0931 51.196C46.7117 51.196 45.5077 50.86 44.4811 50.188C43.4544 49.4973 42.7357 48.5733 42.3251 47.416C42.1757 47.0053 42.0544 46.5387 41.9611 46.016V45.96C41.9611 45.7547 42.0731 45.652 42.2971 45.652H44.9571C45.1437 45.652 45.2651 45.7547 45.3211 45.96C45.3397 46.072 45.3864 46.24 45.4611 46.464C45.6664 47.08 45.9931 47.556 46.4411 47.892C46.8891 48.228 47.4304 48.396 48.0651 48.396C48.7184 48.396 49.2784 48.2187 49.7451 47.864C50.2117 47.4907 50.5384 46.9867 50.7251 46.352C50.8931 45.904 50.9771 45.3907 50.9771 44.812C50.9771 44.2707 50.9024 43.7387 50.7531 43.216C50.6224 42.6 50.3237 42.1333 49.8571 41.816C49.3904 41.48 48.8211 41.312 48.1491 41.312C47.5144 41.312 46.9357 41.4613 46.4131 41.76C45.9091 42.04 45.5824 42.4133 45.4331 42.88C45.3584 43.0667 45.2277 43.16 45.0411 43.16H42.3251C42.2317 43.16 42.1477 43.132 42.0731 43.076C42.0171 43.0013 41.9891 42.9173 41.9891 42.824V31.736C41.9891 31.6427 42.0171 31.568 42.0731 31.512C42.1477 31.4373 42.2317 31.4 42.3251 31.4H53.2171C53.3104 31.4 53.3851 31.4373 53.4411 31.512C53.5157 31.568 53.5531 31.6427 53.5531 31.736V33.864C53.5531 33.9573 53.5157 34.0413 53.4411 34.116C53.3851 34.172 53.3104 34.2 53.2171 34.2H45.3771C45.2837 34.2 45.2371 34.2467 45.2371 34.34L45.2091 39.38C45.2091 39.4547 45.2277 39.5013 45.2651 39.52C45.3024 39.52 45.3397 39.5013 45.3771 39.464C46.2544 38.8107 47.3091 38.484 48.5411 38.484C49.8477 38.484 50.9771 38.82 51.9291 39.492C52.8997 40.1453 53.5624 41.0507 53.9171 42.208Z" fill="white"/>
<defs>
<linearGradient id="paint0_linear_31_3953" x1="40" y1="0" x2="40" y2="80" gradientUnits="userSpaceOnUse">
<stop stop-color="#242424"/>
<stop offset="1" stop-color="#242424" stop-opacity="0"/>
</linearGradient>
<linearGradient id="paint1_linear_31_3953" x1="40" y1="0" x2="40" y2="80" gradientUnits="userSpaceOnUse">
<stop stop-color="#2E2E2E"/>
<stop offset="1" stop-color="#2E2E2E" stop-opacity="0"/>
</linearGradient>
</defs>
</svg>
