<svg width="74" height="74" viewBox="0 0 74 74" fill="none" xmlns="http://www.w3.org/2000/svg">
<rect x="0.5" y="0.5" width="73" height="73" rx="11.5" fill="#1F1F1F"/>
<rect x="0.5" y="0.5" width="73" height="73" rx="11.5" stroke="#333333"/>
<path d="M22.8335 29.2084C22.8335 25.6876 25.6877 22.8334 29.2085 22.8334C32.7293 22.8334 35.5835 25.6876 35.5835 29.2084V33.4584C35.5835 33.9524 35.5835 34.1994 35.5292 34.4021C35.3818 34.9521 34.9522 35.3817 34.4022 35.5291C34.1996 35.5834 33.9525 35.5834 33.4585 35.5834H29.2085C25.6877 35.5834 22.8335 32.7292 22.8335 29.2084Z" fill="#0A84FF"/>
<path d="M38.4168 40.5417C38.4168 40.0477 38.4168 39.8006 38.4711 39.598C38.6185 39.048 39.0481 38.6184 39.5981 38.471C39.8008 38.4167 40.0478 38.4167 40.5418 38.4167H44.7918C48.3126 38.4167 51.1668 41.2709 51.1668 44.7917C51.1668 48.3125 48.3126 51.1667 44.7918 51.1667C41.271 51.1667 38.4168 48.3125 38.4168 44.7917V40.5417Z" fill="#0A84FF"/>
<path d="M22.8335 44.7917C22.8335 41.2709 25.6877 38.4167 29.2085 38.4167H33.0335C33.9261 38.4167 34.3724 38.4167 34.7133 38.5904C35.0132 38.7432 35.257 38.987 35.4098 39.2869C35.5835 39.6278 35.5835 40.0741 35.5835 40.9667V44.7917C35.5835 48.3125 32.7293 51.1667 29.2085 51.1667C25.6877 51.1667 22.8335 48.3125 22.8335 44.7917Z" fill="#0A84FF"/>
<path d="M38.4168 29.2084C38.4168 25.6876 41.271 22.8334 44.7918 22.8334C48.3126 22.8334 51.1668 25.6876 51.1668 29.2084C51.1668 32.7292 48.3126 35.5834 44.7918 35.5834H40.2383C40.0268 35.5834 39.9211 35.5834 39.8321 35.5734C39.0932 35.4901 38.5101 34.907 38.4269 34.1681C38.4168 34.0791 38.4168 33.9734 38.4168 33.7619V29.2084Z" fill="#0A84FF"/>
</svg>
