<svg width="74" height="74" viewBox="0 0 74 74" fill="none" xmlns="http://www.w3.org/2000/svg">
<rect x="0.5" y="0.5" width="73" height="73" rx="11.5" fill="#1F1F1F"/>
<rect x="0.5" y="0.5" width="73" height="73" rx="11.5" stroke="#333333"/>
<path d="M34.5086 28.1502L45.8499 39.4915C46.7041 40.3456 48.0889 40.3456 48.943 39.4915C49.7971 38.6374 49.7971 37.2525 48.943 36.3984L47.3965 34.8519L49.4585 32.7898C51.7362 30.5121 51.7362 26.8193 49.4585 24.5416C47.1808 22.2639 43.488 22.2639 41.2103 24.5416L39.1482 26.6036L37.6017 25.0571C36.7476 24.203 35.3627 24.203 34.5086 25.0571C33.6545 25.9112 33.6545 27.296 34.5086 28.1502Z" fill="#0A84FF"/>
<path d="M34.5525 31.1993L26.6711 39.0808C26.0251 39.7268 25.7021 40.0498 25.4971 40.4367C25.3603 40.6947 25.2631 40.9719 25.2087 41.2588C25.1271 41.689 25.1775 42.143 25.2784 43.051L25.3532 43.7244C25.3807 43.9721 25.3945 44.096 25.398 44.2149C25.419 44.9352 25.1725 45.6378 24.7061 46.1872C24.6292 46.2778 24.541 46.366 24.3648 46.5422L23.4741 47.4329C22.62 48.287 22.62 49.6719 23.4741 50.526C24.3282 51.3801 25.7131 51.3801 26.5672 50.526L27.4579 49.6353C27.6341 49.459 27.7223 49.3709 27.8129 49.294C28.3623 48.8276 29.0649 48.5811 29.7852 48.6021C29.9041 48.6056 30.0279 48.6194 30.2757 48.6469L30.9491 48.7217C31.857 48.8226 32.311 48.873 32.7413 48.7914C33.0282 48.737 33.3054 48.6398 33.5634 48.503C33.9503 48.298 34.2733 47.975 34.9193 47.329L36.9571 45.2911L34.3314 42.6653C33.9164 42.2504 33.9164 41.5777 34.3314 41.1627C34.7463 40.7478 35.4191 40.7478 35.834 41.1627L38.4598 43.7885L39.7904 42.4577L37.1647 39.832C36.7498 39.4171 36.7498 38.7443 37.1647 38.3294C37.5796 37.9145 38.2524 37.9145 38.6673 38.3294L41.2931 40.9552L42.8008 39.4476L34.5525 31.1993Z" fill="#0A84FF"/>
</svg>
