<svg width="74" height="74" viewBox="0 0 74 74" fill="none" xmlns="http://www.w3.org/2000/svg">
<rect x="0.5" y="0.5" width="73" height="73" rx="11.5" fill="#1F1F1F"/>
<rect x="0.5" y="0.5" width="73" height="73" rx="11.5" stroke="#333333"/>
<path fill-rule="evenodd" clip-rule="evenodd" d="M37.0738 21.7709H36.9265C35.6537 21.7708 34.5923 21.7708 33.7497 21.8841C32.8603 22.0037 32.0573 22.2667 31.4121 22.9119C30.7668 23.5572 30.5038 24.3602 30.3842 25.2495C30.2709 26.0921 30.271 27.1535 30.271 28.4264V28.5365C27.4077 28.6302 25.6882 28.9648 24.4932 30.1598C22.8335 31.8195 22.8335 34.4908 22.8335 39.8334C22.8335 45.176 22.8335 47.8473 24.4932 49.507C26.153 51.1667 28.8242 51.1667 34.1668 51.1667H39.8335C45.1761 51.1667 47.8474 51.1667 49.5071 49.507C51.1668 47.8473 51.1668 45.176 51.1668 39.8334C51.1668 34.4908 51.1668 31.8195 49.5071 30.1598C48.3121 28.9648 46.5927 28.6302 43.7293 28.5365V28.4264C43.7294 27.1536 43.7294 26.0921 43.6161 25.2495C43.4966 24.3602 43.2335 23.5572 42.5883 22.9119C41.943 22.2667 41.1401 22.0037 40.2507 21.8841C39.4081 21.7708 38.3467 21.7708 37.0738 21.7709ZM41.6043 28.5027V28.5C41.6043 27.1344 41.6021 26.217 41.5101 25.5327C41.4222 24.8789 41.2703 24.5992 41.0857 24.4145C40.9011 24.2299 40.6213 24.078 39.9675 23.9901C39.2832 23.8981 38.3659 23.8959 37.0002 23.8959C35.6345 23.8959 34.7171 23.8981 34.0328 23.9901C33.3791 24.078 33.0993 24.2299 32.9147 24.4145C32.7301 24.5992 32.5782 24.8789 32.4903 25.5327C32.3983 26.217 32.396 27.1344 32.396 28.5V28.5027C32.9514 28.5 33.5408 28.5 34.1668 28.5H39.8335C40.4596 28.5 41.049 28.5 41.6043 28.5027ZM44.0835 32.75C44.0835 33.5324 43.4492 34.1667 42.6668 34.1667C41.8844 34.1667 41.2502 33.5324 41.2502 32.75C41.2502 31.9676 41.8844 31.3334 42.6668 31.3334C43.4492 31.3334 44.0835 31.9676 44.0835 32.75ZM31.3335 34.1667C32.1159 34.1667 32.7502 33.5324 32.7502 32.75C32.7502 31.9676 32.1159 31.3334 31.3335 31.3334C30.5511 31.3334 29.9168 31.9676 29.9168 32.75C29.9168 33.5324 30.5511 34.1667 31.3335 34.1667Z" fill="#0A84FF"/>
</svg>
