<svg width="74" height="74" viewBox="0 0 74 74" fill="none" xmlns="http://www.w3.org/2000/svg">
<rect x="0.5" y="0.5" width="73" height="73" rx="11.5" fill="#1F1F1F"/>
<rect x="0.5" y="0.5" width="73" height="73" rx="11.5" stroke="#333333"/>
<path fill-rule="evenodd" clip-rule="evenodd" d="M27.3262 24.493C25.6665 26.1528 25.6665 28.8241 25.6665 34.1666V39.8333C25.6665 45.1759 25.6665 47.8472 27.3262 49.5069C28.986 51.1666 31.6573 51.1666 36.9998 51.1666C42.3424 51.1666 45.0137 51.1666 46.6734 49.5069C48.3332 47.8472 48.3332 45.1759 48.3332 39.8333V34.1666C48.3332 28.8241 48.3332 26.1528 46.6734 24.493C45.0137 22.8333 42.3424 22.8333 36.9998 22.8333C31.6573 22.8333 28.986 22.8333 27.3262 24.493ZM32.7498 26.0208C32.163 26.0208 31.6873 26.4965 31.6873 27.0833C31.6873 27.6701 32.163 28.1458 32.7498 28.1458H41.2498C41.8366 28.1458 42.3123 27.6701 42.3123 27.0833C42.3123 26.4965 41.8366 26.0208 41.2498 26.0208H32.7498ZM36.9998 46.9166C38.5646 46.9166 39.8332 45.6481 39.8332 44.0833C39.8332 42.5185 38.5646 41.25 36.9998 41.25C35.435 41.25 34.1665 42.5185 34.1665 44.0833C34.1665 45.6481 35.435 46.9166 36.9998 46.9166Z" fill="#0A84FF"/>
</svg>
