<svg width="100" height="50" viewBox="0 0 100 50" fill="none" xmlns="http://www.w3.org/2000/svg">
<g clip-path="url(#clip0_31_3466)">
<path d="M0.0012207 36.8698L10.2663 20.8971H1.21725C1.14056 20.437 1.1077 19.9331 1.1077 19.3744C1.1077 18.8375 1.14056 18.3446 1.21725 17.8954H15.8644L16.0506 18.3884L5.70889 34.394H15.4043C15.4809 34.8979 15.5138 35.4238 15.5138 35.9496C15.5138 36.4535 15.4809 36.9356 15.4043 37.3957H0.187459L0.0012207 36.8698Z" fill="#E6E6E6"/>
<path d="M29.6242 24.5454C29.6242 23.0446 29.2408 22.0148 28.4849 21.4232C27.7289 20.8426 26.6225 20.5468 25.1764 20.5468C24.289 20.5468 23.4564 20.6125 22.6895 20.7549C21.9117 20.8973 21.1668 21.0726 20.4218 21.3027C19.9398 20.4701 19.6988 19.4622 19.6988 18.301C20.5642 18.0271 21.5064 17.808 22.5471 17.6546C23.5879 17.5012 24.5848 17.4245 25.5489 17.4245C28.0795 17.4245 30.0076 18.0052 31.3332 19.1555C32.6478 20.3058 33.3161 22.1572 33.3161 24.6878V36.892C32.4287 37.0892 31.3551 37.3083 30.0843 37.5164C28.8135 37.7355 27.5208 37.8341 26.2062 37.8341C24.9682 37.8341 23.8398 37.7246 22.8429 37.4945C21.846 37.2644 20.9915 36.9029 20.2904 36.388C19.5892 35.8841 19.0524 35.2377 18.669 34.4489C18.2855 33.6602 18.0993 32.7071 18.0993 31.6006C18.0993 30.516 18.3184 29.552 18.7676 28.7303C19.2058 27.9087 19.8083 27.2185 20.5752 26.6817C21.3311 26.1339 22.2075 25.7286 23.2044 25.4657C24.1904 25.2027 25.2312 25.0603 26.3267 25.0603C27.1374 25.0603 27.8056 25.0822 28.3205 25.1151C28.8354 25.148 29.2736 25.2027 29.6352 25.2466V24.5454H29.6242ZM29.6242 28.2373C29.2408 28.1826 28.7587 28.1387 28.1781 28.084C27.5975 28.0292 27.1045 28.0073 26.6992 28.0073C25.1216 28.0073 23.9275 28.3031 23.1058 28.8837C22.2842 29.4643 21.8679 30.3517 21.8679 31.5458C21.8679 32.3017 22.0103 32.9043 22.2842 33.3315C22.5581 33.7588 22.9086 34.0874 23.3249 34.3175C23.7412 34.5475 24.2014 34.69 24.7163 34.7338C25.2202 34.7886 25.7022 34.8105 26.1623 34.8105C26.743 34.8105 27.3455 34.7776 27.97 34.7119C28.5944 34.6461 29.1422 34.5585 29.6242 34.427V28.2373Z" fill="#E6E6E6"/>
<path d="M37.4242 17.8962C37.6762 17.8414 37.9391 17.8086 38.202 17.7867C38.465 17.7648 38.7389 17.7538 39.0237 17.7538C39.2757 17.7538 39.5386 17.7648 39.8234 17.7867C40.0973 17.8086 40.3712 17.8524 40.6231 17.8962C40.6451 17.951 40.6779 18.1044 40.7217 18.3673C40.7546 18.6302 40.7984 18.9151 40.8313 19.2218C40.8642 19.5286 40.908 19.8134 40.9408 20.0982C40.9737 20.3831 40.9956 20.5583 40.9956 20.635C41.2476 20.2297 41.5543 19.8353 41.9049 19.4519C42.2555 19.0684 42.6827 18.7288 43.1757 18.4221C43.6687 18.1153 44.2274 17.8743 44.8519 17.699C45.4763 17.5237 46.1665 17.4361 46.9224 17.4361C48.0617 17.4361 49.1244 17.6223 50.0994 18.0058C51.0744 18.3892 51.907 18.9698 52.6082 19.7696C53.3093 20.5693 53.8461 21.5881 54.2405 22.8151C54.6349 24.0421 54.8321 25.4991 54.8321 27.1753C54.8321 30.5276 53.9228 33.1459 52.1152 35.0302C50.2966 36.9145 47.7331 37.8676 44.4137 37.8676C43.8549 37.8676 43.2853 37.8347 42.7046 37.758C42.124 37.6814 41.6091 37.5828 41.1819 37.4513V46.3908C40.8751 46.4455 40.5574 46.4784 40.2069 46.5003C39.8672 46.5222 39.5495 46.5332 39.2757 46.5332C39.0018 46.5332 38.6841 46.5222 38.3445 46.5003C38.0049 46.4784 37.6871 46.4346 37.4133 46.3908V17.8962H37.4242ZM41.1928 34.2086C41.6748 34.3838 42.1678 34.5153 42.6718 34.592C43.1757 34.6687 43.833 34.7015 44.6547 34.7015C45.5639 34.7015 46.4075 34.5591 47.1634 34.2633C47.9193 33.9675 48.5766 33.5184 49.1244 32.9158C49.6722 32.3023 50.0994 31.5355 50.4171 30.6152C50.7348 29.695 50.8882 28.5885 50.8882 27.3287C50.8882 25.302 50.5157 23.6915 49.7708 22.4974C49.0258 21.3033 47.7988 20.7117 46.1007 20.7117C45.4653 20.7117 44.8628 20.8213 44.2712 21.0513C43.6906 21.2814 43.1648 21.621 42.7156 22.0811C42.2555 22.5412 41.8939 23.1109 41.6091 23.812C41.3243 24.5132 41.1928 25.3348 41.1928 26.2989V34.2086Z" fill="#E6E6E6"/>
<path d="M59.5209 20.8533H57.045C56.9902 20.6452 56.9574 20.4151 56.9354 20.1522C56.9135 19.8892 56.9026 19.6263 56.9026 19.3744C56.9026 19.1224 56.9135 18.8595 56.9354 18.5965C56.9574 18.3336 57.0012 18.0926 57.045 17.8954H63.2128V37.4066C62.9389 37.4614 62.6212 37.4943 62.2816 37.5162C61.942 37.5381 61.6243 37.5491 61.3504 37.5491C61.0984 37.5491 60.8026 37.5381 60.4521 37.5162C60.1124 37.4943 59.7948 37.4505 59.5209 37.4066V20.8533Z" fill="#E6E6E6"/>
<path d="M71.3087 28.5772C71.3634 30.7025 71.9112 32.2691 72.9629 33.2551C74.0146 34.2411 75.5702 34.7341 77.6189 34.7341C79.4155 34.7341 81.1355 34.4164 82.7569 33.781C82.965 34.1644 83.1293 34.6245 83.2499 35.1723C83.3813 35.72 83.447 36.2568 83.4799 36.7936C82.6473 37.1442 81.7271 37.4181 80.7192 37.5934C79.7223 37.7687 78.6048 37.8563 77.3888 37.8563C75.6141 37.8563 74.0913 37.6043 72.8205 37.1113C71.5497 36.6184 70.5089 35.9172 69.6873 35.0189C68.8657 34.1206 68.2631 33.0579 67.8797 31.82C67.4963 30.593 67.31 29.2455 67.31 27.7665C67.31 26.3204 67.4963 24.973 67.8578 23.7131C68.2193 22.4533 68.789 21.3687 69.5449 20.4375C70.3008 19.5173 71.2648 18.7723 72.4151 18.2355C73.5654 17.6877 74.9348 17.4139 76.5014 17.4139C77.8489 17.4139 79.0211 17.6439 80.04 18.104C81.0588 18.5642 81.9024 19.1886 82.5925 19.9883C83.2718 20.7881 83.7976 21.7412 84.1482 22.8367C84.4987 23.9432 84.685 25.1373 84.685 26.43C84.685 26.7806 84.674 27.164 84.6412 27.5474C84.6192 27.9418 84.5864 28.2814 84.5645 28.5553H71.3087V28.5772ZM80.9712 25.7617C80.9712 25.0496 80.8726 24.3704 80.6863 23.7241C80.5001 23.0777 80.2153 22.519 79.8537 22.037C79.4813 21.5549 79.0211 21.1715 78.4515 20.8757C77.8818 20.5799 77.2026 20.4375 76.4138 20.4375C74.8691 20.4375 73.686 20.9086 72.8533 21.8398C72.0317 22.7819 71.5278 24.0856 71.3525 25.7617H80.9712Z" fill="#E6E6E6"/>
<path d="M88.848 17.8954C89.1219 17.8406 89.3958 17.8078 89.6478 17.7858C89.8997 17.7639 90.1627 17.753 90.4475 17.753C90.7214 17.753 91.0062 17.7639 91.2801 17.7858C91.554 17.8078 91.8169 17.8516 92.036 17.8954C92.1127 18.2788 92.1894 18.7718 92.2661 19.3963C92.3428 20.0207 92.3756 20.5466 92.3756 20.9738C92.9124 20.1084 93.6136 19.3634 94.49 18.728C95.3664 18.0926 96.4838 17.7749 97.8532 17.7749C98.0614 17.7749 98.2695 17.7858 98.4777 17.7968C98.6968 17.8078 98.8721 17.8297 99.0254 17.8516C99.0802 18.0816 99.1131 18.3227 99.135 18.5746C99.1569 18.8266 99.1679 19.0895 99.1679 19.3744C99.1679 19.6811 99.1459 19.9988 99.1131 20.3275C99.0802 20.6561 99.0254 20.9738 98.9816 21.2806C98.7735 21.2258 98.5653 21.2039 98.3572 21.2039C98.1381 21.2039 97.9737 21.2039 97.8423 21.2039C97.163 21.2039 96.5057 21.3025 95.8813 21.4887C95.2568 21.675 94.6981 22.0146 94.2051 22.4966C93.7122 22.9786 93.3178 23.6359 93.022 24.4795C92.7262 25.3121 92.5838 26.3967 92.5838 27.7113V37.4067C92.3099 37.4614 91.9922 37.4943 91.6526 37.5162C91.313 37.5381 90.9953 37.5491 90.7214 37.5491C90.4475 37.5491 90.1298 37.5381 89.7902 37.5162C89.4506 37.4943 89.1219 37.4505 88.8152 37.4067V17.8954H88.848Z" fill="#E6E6E6"/>
<path d="M66.795 6.41476H63.114L65.7214 3.80741C65.5132 3.52258 65.2832 3.2487 65.0422 2.99673C64.7902 2.74476 64.5273 2.5147 64.2315 2.3175L61.6241 4.92485V1.24389C61.2845 1.18912 60.9339 1.15625 60.5724 1.15625H60.5615C60.1999 1.15625 59.8494 1.18912 59.5098 1.24389V4.92485L56.9024 2.3175C56.6176 2.52565 56.3437 2.75571 56.0917 2.99673C55.8398 3.2487 55.6207 3.51162 55.4125 3.80741L58.0308 6.41476H54.3499C54.3499 6.41476 54.2622 7.10493 54.2622 7.46646C54.2622 7.82798 54.2951 8.17855 54.3499 8.51816H58.0308L55.4235 11.1255C55.8288 11.6952 56.3328 12.1991 56.9134 12.6154L59.5207 10.0081V13.689C59.8603 13.7438 60.2109 13.7767 60.5724 13.7767H60.5834C60.9449 13.7767 61.2955 13.7438 61.6351 13.689V10.0081L64.2424 12.6154C64.5273 12.4073 64.8011 12.1772 65.0531 11.9362C65.3051 11.6842 65.5351 11.4213 65.7323 11.1255L63.125 8.51816H66.8059C66.8607 8.17855 66.8936 7.82798 66.8936 7.46646V7.4555C66.8826 7.10493 66.8607 6.75437 66.795 6.41476ZM62.15 7.47741C62.15 7.94849 62.0623 8.39765 61.909 8.81395C61.4927 8.96732 61.0435 9.05496 60.5724 9.05496C60.1013 9.05496 59.6522 8.96732 59.2359 8.81395C59.0825 8.39765 58.9949 7.94849 58.9949 7.47741V7.46646C58.9949 6.99538 59.0825 6.54622 59.2359 6.12992C59.6522 5.97655 60.1013 5.88891 60.5724 5.88891C61.0435 5.88891 61.4927 5.97655 61.909 6.12992C62.0623 6.54622 62.15 6.99538 62.15 7.47741Z" fill="#E6E6E6"/>
</g>
<defs>
<clipPath id="clip0_31_3466">
<rect width="100" height="50" fill="white"/>
</clipPath>
</defs>
</svg>
