<svg width="146" height="50" viewBox="0 0 146 50" fill="none" xmlns="http://www.w3.org/2000/svg">
<g clip-path="url(#clip0_31_3469)">
<path d="M21.9528 3.20703C9.8716 3.20703 0.0773926 13.001 0.0773926 25.0822C0.0773926 37.1639 9.8716 46.957 21.9528 46.957C34.0353 46.957 43.8285 37.1639 43.8285 25.0822C43.8285 13.0018 34.0353 3.20808 21.9525 3.20808L21.9528 3.20703ZM31.9847 34.7572C31.5929 35.3999 30.7518 35.6036 30.1092 35.2092C24.973 32.0719 18.5073 31.3614 10.8927 33.1011C10.1589 33.2683 9.42753 32.8085 9.26035 32.0745C9.09238 31.3405 9.5503 30.6091 10.2859 30.4419C18.6188 28.5381 25.7666 29.3578 31.5328 32.8817C32.1754 33.2761 32.3792 34.1146 31.9847 34.7572ZM34.6622 28.8009C34.1685 29.6034 33.1184 29.8568 32.3165 29.363C26.4364 25.7488 17.4731 24.7021 10.5181 26.8133C9.61613 27.0857 8.66346 26.5774 8.3897 25.677C8.11803 24.775 8.62663 23.8241 9.52705 23.5498C17.4716 21.1393 27.3481 22.307 34.1006 26.4564C34.9026 26.9501 35.1559 28.0003 34.6622 28.8012V28.8009ZM34.8921 22.5985C27.8418 18.4109 16.2096 18.0258 9.47821 20.0688C8.39727 20.3967 7.25417 19.7864 6.9266 18.7055C6.59903 17.6241 7.20872 16.4817 8.29043 16.1531C16.0176 13.8074 28.8631 14.2606 36.9803 19.0793C37.9547 19.6564 38.2734 20.912 37.6961 21.883C37.1214 22.8553 35.8623 23.1758 34.8932 22.5985H34.8921ZM59.5931 23.4009C55.8159 22.5003 55.1446 21.8681 55.1446 20.5398C55.1446 19.2849 56.3253 18.4404 58.0833 18.4404C59.7864 18.4404 61.4739 19.0817 63.245 20.4019C63.2973 20.4418 63.3652 20.4578 63.4305 20.4473C63.4984 20.4374 63.5559 20.4011 63.595 20.3465L65.4393 17.7468C65.515 17.6397 65.4941 17.4921 65.3922 17.4104C63.2842 15.7195 60.9123 14.8974 58.1381 14.8974C54.0605 14.8974 51.2106 17.3448 51.2106 20.8465C51.2106 24.6015 53.6687 25.9311 57.9161 26.9575C61.5288 27.79 62.14 28.4874 62.14 29.734C62.14 31.1158 60.9071 31.9752 58.9218 31.9752C56.7171 31.9752 54.9173 31.2308 52.9059 29.491C52.8563 29.4466 52.7883 29.4283 52.7257 29.431C52.6577 29.4362 52.5976 29.4675 52.5559 29.5172L50.487 31.9779C50.4008 32.0823 50.4112 32.2339 50.5105 32.3227C52.851 34.4124 55.7297 35.5148 58.8382 35.5148C63.2319 35.5148 66.0714 33.1142 66.0714 29.397C66.0793 26.2605 64.2011 24.5234 59.601 23.4043L59.5931 23.4009ZM76.0135 19.6759C74.1092 19.6759 72.5471 20.4262 71.2567 21.9634V20.2331C71.2567 20.0965 71.1469 19.9852 71.0111 19.9852H67.6283C67.4925 19.9852 67.3828 20.0965 67.3828 20.2331V39.4592C67.3828 39.5951 67.4925 39.7074 67.6283 39.7074H71.0111C71.1469 39.7074 71.2567 39.5951 71.2567 39.4592V33.3911C72.5471 34.8356 74.1092 35.5435 76.0135 35.5435C79.553 35.5435 83.137 32.819 83.137 27.6105C83.1422 22.401 79.5583 19.6757 76.0161 19.6757L76.0135 19.6759ZM79.203 27.6105C79.203 30.2616 77.5704 32.1137 75.2298 32.1137C72.918 32.1137 71.1731 30.1781 71.1731 27.6105C71.1731 25.0427 72.918 23.1076 75.2298 23.1076C77.5312 23.1073 79.203 25.0007 79.203 27.6103V27.6105ZM92.3189 19.6759C87.7606 19.6759 84.1897 23.1857 84.1897 27.6672C84.1897 32.1006 87.7371 35.5723 92.264 35.5723C96.838 35.5723 100.419 32.0745 100.419 27.6105C100.419 23.1617 96.8615 19.6765 92.3189 19.6765V19.6759ZM92.3189 32.1398C89.8948 32.1398 88.0662 30.1911 88.0662 27.6092C88.0662 25.0156 89.8321 23.1335 92.264 23.1335C94.7038 23.1335 96.5428 25.0814 96.5428 27.6659C96.5428 30.259 94.7665 32.1398 92.3189 32.1398ZM110.152 19.9852H106.43V16.1803C106.43 16.0439 106.32 15.9327 106.184 15.9327H102.802C102.666 15.9327 102.554 16.0439 102.554 16.1803V19.9852H100.929C100.793 19.9852 100.683 20.0965 100.683 20.2331V23.1397C100.683 23.2761 100.793 23.3876 100.929 23.3876H102.554V30.9095C102.554 33.9475 104.066 35.4887 107.052 35.4887C108.264 35.4887 109.27 35.2379 110.218 34.6998C110.296 34.658 110.343 34.5744 110.343 34.4856V31.7166C110.343 31.6331 110.299 31.5521 110.226 31.5077C110.152 31.4606 110.061 31.458 109.985 31.4972C109.335 31.8237 108.705 31.9752 108 31.9752C106.916 31.9752 106.43 31.4815 106.43 30.3792V23.3889H110.152C110.288 23.3889 110.398 23.2776 110.398 23.141V20.2347C110.403 20.0981 110.293 19.9868 110.155 19.9868L110.152 19.9852ZM123.119 20.0001V19.5328C123.119 18.158 123.647 17.5449 124.828 17.5449C125.533 17.5449 126.1 17.6849 126.735 17.8965C126.813 17.9211 126.894 17.9088 126.957 17.862C127.022 17.8153 127.059 17.7403 127.059 17.6609V14.811C127.059 14.702 126.991 14.6057 126.884 14.5735C126.215 14.3742 125.358 14.1697 124.073 14.1697C120.951 14.1697 119.298 15.9287 119.298 19.2549V19.9706H117.673C117.537 19.9706 117.425 20.0819 117.425 20.2182V23.1397C117.425 23.2761 117.537 23.3876 117.673 23.3876H119.298V34.9871C119.298 35.1256 119.41 35.2353 119.546 35.2353H122.926C123.065 35.2353 123.174 35.1256 123.174 34.9871V23.3884H126.332L131.17 34.9871C130.622 36.2044 130.081 36.4473 129.344 36.4473C128.749 36.4473 128.119 36.2697 127.479 35.9171C127.419 35.8857 127.346 35.8805 127.283 35.8988C127.218 35.9223 127.163 35.9693 127.137 36.032L125.99 38.5476C125.935 38.6677 125.982 38.8062 126.097 38.8689C127.294 39.5167 128.373 39.7936 129.707 39.7936C132.205 39.7936 133.587 38.6285 134.801 35.4991L140.668 20.3387C140.7 20.2624 140.689 20.1762 140.642 20.1085C140.598 20.0414 140.522 20.0009 140.441 20.0009H136.92C136.813 20.0009 136.719 20.068 136.685 20.167L133.077 30.468L129.128 20.1602C129.091 20.0644 128.999 20.0009 128.898 20.0009H123.119V20.0001ZM115.601 19.9852H112.219C112.083 19.9852 111.971 20.0965 111.971 20.2331V34.9871C111.971 35.1256 112.083 35.2353 112.219 35.2353H115.601C115.737 35.2353 115.85 35.1256 115.85 34.9871V20.2342C115.85 20.0976 115.74 19.9863 115.601 19.9863V19.9852ZM113.93 13.2669C112.59 13.2669 111.503 14.3515 111.503 15.6913C111.503 17.0319 112.59 18.1178 113.93 18.1178C115.27 18.1178 116.354 17.0319 116.354 15.6913C116.354 14.3517 115.267 13.2669 113.93 13.2669ZM143.557 24.7293C142.22 24.7293 141.178 23.6543 141.178 22.349C141.178 21.0437 142.233 19.9565 143.57 19.9565C144.908 19.9565 145.95 21.0312 145.95 22.3354C145.95 23.6407 144.895 24.7293 143.557 24.7293ZM143.57 20.1932C142.35 20.1932 141.428 21.1623 141.428 22.349C141.428 23.5352 142.345 24.4913 143.557 24.4913C144.777 24.4913 145.699 23.5229 145.699 22.3354C145.699 21.1492 144.782 20.1932 143.57 20.1932ZM144.098 22.5802L144.772 23.5227H144.203L143.597 22.658H143.077V23.5227H142.601V21.0244H143.714C144.297 21.0244 144.678 21.3214 144.678 21.8213C144.681 22.2309 144.443 22.4812 144.101 22.5802H144.098ZM143.696 21.453H143.077V22.2432H143.696C144.004 22.2432 144.189 22.092 144.189 21.8477C144.189 21.5907 144.004 21.453 143.696 21.453Z" fill="#E6E6E6"/>
</g>
<defs>
<clipPath id="clip0_31_3469">
<rect width="145.833" height="50" fill="white"/>
</clipPath>
</defs>
</svg>
