<svg width="103" height="50" viewBox="0 0 103 50" fill="none" xmlns="http://www.w3.org/2000/svg">
<g clip-path="url(#clip0_31_3472)">
<path fill-rule="evenodd" clip-rule="evenodd" d="M83.0281 21.4581C83.4179 22.1306 83.5455 22.8958 83.5876 23.756L83.6429 24.9025V32.92L83.6995 34.0678C83.8126 35.9422 85.1949 37.3282 87.0838 37.4461L88.2255 37.5026V24.9025L88.2821 23.756C88.329 22.9054 88.4553 22.1258 88.8512 21.4484C89.2545 20.7537 89.8335 20.1773 90.5301 19.7771C91.2266 19.3769 92.0162 19.167 92.8195 19.1684C93.6229 19.1699 94.4117 19.3827 95.1068 19.7854C95.8019 20.1881 96.3788 20.7667 96.7796 21.4629C97.1694 22.1354 97.2909 22.915 97.3378 23.756L97.3944 24.8989V32.92L97.4509 34.0678C97.5688 35.9518 98.9404 37.3378 100.835 37.4461L101.977 37.5026V23.756C101.977 21.3252 101.012 18.9939 99.2931 17.2748C97.5746 15.5556 95.2437 14.5893 92.813 14.5883C91.5119 14.587 90.2256 14.8633 89.0399 15.3987C87.8542 15.9342 86.7964 16.7166 85.9372 17.6936C85.0777 16.717 84.0198 15.9348 82.8342 15.3992C81.6486 14.8635 80.3625 14.5867 79.0615 14.5871C77.1582 14.5871 75.3921 15.1646 73.9291 16.162C73.0364 15.1658 71.0392 14.5871 69.8927 14.5871V37.5026L71.0392 37.4461C72.957 37.3197 74.343 35.9711 74.4175 34.0678L74.4789 32.92V24.9025L74.5355 23.756C74.5836 22.8909 74.7039 22.1306 75.0949 21.4532C75.4986 20.7589 76.0773 20.1826 76.7734 19.782C77.4694 19.3813 78.2584 19.1702 79.0615 19.1698C79.8653 19.1699 80.6548 19.3814 81.3511 19.7831C82.0473 20.1847 82.6256 20.7623 83.0281 21.4581ZM4.58237 37.4473L5.72892 37.5026H22.9152L22.8587 36.3597C22.7035 34.4756 21.3692 33.0993 19.4792 32.9765L18.3326 32.92H8.02203L21.7687 19.1686L21.7121 18.0268C21.6231 16.1235 20.2323 14.7484 18.3326 14.6437L17.1861 14.592L-0.000244141 14.5871L0.0563016 15.7337C0.206689 17.5997 1.56018 19.0049 3.43461 19.1132L4.58237 19.1698H14.8929L1.14631 32.9212L1.20286 34.0678C1.31595 35.9566 2.67906 37.3246 4.58237 37.4461V37.4473ZM65.3943 17.9414C66.4584 19.0053 67.3026 20.2684 67.8785 21.6587C68.4544 23.0489 68.7509 24.5389 68.7509 26.0437C68.7509 27.5485 68.4544 29.0385 67.8785 30.4287C67.3026 31.8189 66.4584 33.082 65.3943 34.146C63.2444 36.2942 60.3295 37.5009 57.2902 37.5009C54.251 37.5009 51.3361 36.2942 49.1861 34.146C44.7118 29.6716 44.7118 22.4157 49.1861 17.9414C50.2493 16.8778 51.5116 16.0341 52.9008 15.4584C54.2901 14.8826 55.7792 14.5862 57.283 14.5859C58.7893 14.5849 60.281 14.8808 61.6728 15.4568C63.0646 16.0328 64.3292 16.8775 65.3943 17.9426V17.9414ZM62.1519 21.1862C63.4407 22.4759 64.1647 24.2246 64.1647 26.0479C64.1647 27.8712 63.4407 29.6199 62.1519 30.9096C60.8622 32.1984 59.1135 32.9223 57.2902 32.9223C55.4669 32.9223 53.7182 32.1984 52.4285 30.9096C51.1397 29.6199 50.4158 27.8712 50.4158 26.0479C50.4158 24.2246 51.1397 22.4759 52.4285 21.1862C53.7182 19.8974 55.4669 19.1734 57.2902 19.1734C59.1135 19.1734 60.8622 19.8974 62.1519 21.1862ZM33.2354 14.5859C34.7393 14.5863 36.2284 14.883 37.6177 15.4589C39.007 16.0348 40.2692 16.8788 41.3323 17.9426C45.8078 22.4157 45.8078 29.6728 41.3323 34.146C39.1823 36.2942 36.2674 37.5009 33.2282 37.5009C30.1889 37.5009 27.274 36.2942 25.1241 34.146C20.6498 29.6716 20.6498 22.4157 25.1241 17.9414C26.1873 16.8778 27.4495 16.0341 28.8388 15.4584C30.2281 14.8826 31.7171 14.5862 33.221 14.5859H33.2354ZM38.0899 21.1837C39.3791 22.4735 40.1032 24.2225 40.1032 26.0461C40.1032 27.8697 39.3791 29.6186 38.0899 30.9084C36.8002 32.1972 35.0515 32.9211 33.2282 32.9211C31.4049 32.9211 29.6562 32.1972 28.3665 30.9084C27.0777 29.6187 26.3537 27.87 26.3537 26.0467C26.3537 24.2234 27.0777 22.4747 28.3665 21.1849C29.6562 19.8962 31.4049 19.1722 33.2282 19.1722C35.0515 19.1722 36.8002 19.8962 38.0899 21.1849V21.1837Z" fill="#E6E6E6"/>
</g>
<defs>
<clipPath id="clip0_31_3472">
<rect width="102.083" height="50" fill="white"/>
</clipPath>
</defs>
</svg>
