<svg width="127" height="50" viewBox="0 0 127 50" fill="none" xmlns="http://www.w3.org/2000/svg">
<g clip-path="url(#clip0_31_3475)">
<path d="M39.5047 33.7806L41.034 30.2061C42.7084 31.4462 44.8924 32.1025 47.077 32.1025C48.6788 32.1025 49.698 31.4827 49.698 30.5345C49.6615 27.9083 40.0508 29.9508 39.9777 23.3481C39.9412 19.9924 42.9266 17.4027 47.1501 17.4027C49.6615 17.4027 52.1739 18.023 53.9575 19.4458L52.5284 23.0964C50.8874 22.0412 48.8605 21.3056 46.9313 21.3056C45.6208 21.3056 44.7468 21.9253 44.7468 22.7283C44.7833 25.318 54.4676 23.8953 54.5767 30.2061C54.5767 33.6349 51.6638 36.0424 47.5135 36.0424C44.4559 36.0424 41.6527 35.313 39.5042 33.7806H39.5047ZM100.398 28.9118C100.012 29.5977 99.451 30.1685 98.7715 30.5658C98.0921 30.9631 97.3192 31.1725 96.5322 31.1726C94.0793 31.1726 92.091 29.1802 92.091 26.7226C92.091 24.2649 94.0793 22.2725 96.5322 22.2725C97.3192 22.2726 98.0921 22.482 98.7715 22.8793C99.451 23.2766 100.012 23.8474 100.398 24.5333L104.65 22.1733C103.058 19.3272 100.02 17.4027 96.5322 17.4027C91.3951 17.4027 87.2306 21.575 87.2306 26.7226C87.2306 31.8696 91.3951 36.0424 96.5322 36.0424C100.02 36.0424 103.058 34.1179 104.65 31.2718L100.398 28.9118ZM57.3356 35.6774H62.6508V9.64453H57.3361L57.3356 35.6774ZM107.334 9.64453V35.6774H112.65V27.878L118.948 35.6774H125.742L117.732 26.4119L125.159 17.7661H118.657L112.65 24.9541V9.64453H107.334ZM79.026 17.7672V19.8833C78.1525 18.424 76.0045 17.4027 73.7474 17.4027C69.0875 17.4027 65.4107 21.5248 65.4107 26.7043C65.4107 31.8837 69.0875 36.0424 73.7474 36.0424C76.0045 36.0424 78.1525 35.0211 79.026 33.5618V35.6774H84.3412V17.7672H79.026ZM79.026 28.9478C78.2616 30.2244 76.6598 31.1721 74.8762 31.1721C72.4228 31.1721 70.4345 29.1802 70.4345 26.7226C70.4345 24.2649 72.4228 22.2725 74.8762 22.2725C76.6598 22.2725 78.2616 23.2572 79.026 24.5699V28.9478Z" fill="#E6E6E6"/>
<path d="M11.4357 9.06641C9.71324 9.06641 8.31709 10.4657 8.31709 12.1913C8.31668 12.6012 8.39702 13.0073 8.55352 13.3862C8.71003 13.7651 8.93963 14.1095 9.22922 14.3996C9.51881 14.6898 9.86272 14.9201 10.2413 15.0774C10.6199 15.2346 11.0258 15.3158 11.4357 15.3162H14.5549V12.1913C14.5556 11.3633 14.2273 10.5689 13.6424 9.98293C13.0575 9.39692 12.2637 9.06724 11.4357 9.06641ZM11.4357 17.3994H3.11887C1.39639 17.3994 0.000244141 18.7987 0.000244141 20.5248C0.000244141 22.2505 1.39639 23.6497 3.11887 23.6497H11.4362C13.1582 23.6497 14.5549 22.2505 14.5549 20.5248C14.5549 18.7987 13.1582 17.3994 11.4357 17.3994Z" fill="#E6E6E6"/>
<path d="M31.1877 20.5248C31.1877 18.7987 29.791 17.3994 28.0685 17.3994C26.3461 17.3994 24.9499 18.7987 24.9499 20.5248V23.6497H28.0685C28.8965 23.6489 29.6903 23.3192 30.2752 22.7332C30.8602 22.1472 31.1884 21.3528 31.1877 20.5248ZM22.8708 20.5248V12.1913C22.8715 11.3633 22.5433 10.5689 21.9584 9.98293C21.3734 9.39691 20.5797 9.06724 19.7517 9.06641C18.0292 9.06641 16.6331 10.4657 16.6331 12.1913V20.5243C16.6331 22.251 18.0292 23.6503 19.7517 23.6503C20.5797 23.6494 21.3734 23.3197 21.9584 22.7337C22.5433 22.1477 22.8715 21.3534 22.8708 20.5254" fill="#E6E6E6"/>
<path d="M19.7517 40.3177C20.5797 40.3169 21.3734 39.9872 21.9584 39.4012C22.5433 38.8152 22.8715 38.0208 22.8708 37.1928C22.8715 36.3648 22.5433 35.5705 21.9584 34.9845C21.3734 34.3984 20.5797 34.0688 19.7517 34.0679H16.6331V37.1928C16.6331 38.9184 18.0292 40.3177 19.7517 40.3177ZM19.7517 31.9847H28.0691C29.791 31.9847 31.1877 30.5854 31.1877 28.8593C31.1884 28.0313 30.8602 27.2369 30.2752 26.6509C29.6903 26.0649 28.8965 25.7352 28.0685 25.7344H19.7517C18.0292 25.7344 16.6331 27.1337 16.6331 28.8593C16.6326 29.2692 16.713 29.6752 16.8695 30.0541C17.026 30.4331 17.2556 30.7774 17.5452 31.0676C17.8348 31.3578 18.1787 31.5881 18.5573 31.7453C18.9359 31.9026 19.3417 31.9837 19.7517 31.9842" fill="#E6E6E6"/>
<path d="M0.000245714 28.8593C-0.000165887 29.2692 0.0801732 29.6752 0.236676 30.0541C0.393179 30.4331 0.62278 30.7774 0.912371 31.0676C1.20196 31.3578 1.54587 31.5881 1.92446 31.7453C2.30305 31.9026 2.70891 31.9837 3.11887 31.9842C3.94686 31.9833 4.74061 31.6536 5.32555 31.0676C5.91049 30.4816 6.23871 29.6873 6.23801 28.8593V25.7344H3.11887C1.39639 25.7344 0.000245714 27.1337 0.000245714 28.8593ZM8.3171 28.8593V37.1923C8.3171 38.9184 9.71325 40.3177 11.4357 40.3177C12.2637 40.3169 13.0575 39.9872 13.6424 39.4012C14.2273 38.8152 14.5556 38.0208 14.5549 37.1928V28.8593C14.5553 28.4493 14.4749 28.0432 14.3184 27.6643C14.1618 27.2853 13.9322 26.9409 13.6426 26.6507C13.3529 26.3606 13.0089 26.1303 12.6303 25.9731C12.2516 25.8158 11.8457 25.7347 11.4357 25.7344C9.71325 25.7344 8.3171 27.1337 8.3171 28.8593Z" fill="#E6E6E6"/>
</g>
<defs>
<clipPath id="clip0_31_3475">
<rect width="126.042" height="50" fill="white"/>
</clipPath>
</defs>
</svg>
