<svg width="115" height="50" viewBox="0 0 115 50" fill="none" xmlns="http://www.w3.org/2000/svg">
<g clip-path="url(#clip0_31_3482)">
<path fill-rule="evenodd" clip-rule="evenodd" d="M70.764 39.3812C64.1353 44.2671 54.5274 46.8739 46.2551 46.8739C34.6561 46.8739 24.214 42.5838 16.3142 35.4486C15.6935 34.8876 16.2496 34.1229 16.9944 34.5598C25.5199 39.5202 36.0613 42.5044 46.9503 42.5044C54.294 42.5044 62.3726 40.985 69.8007 37.832C70.9229 37.3553 71.8613 38.5669 70.764 39.3812Z" fill="#E6E6E6"/>
<path fill-rule="evenodd" clip-rule="evenodd" d="M73.5198 36.2282C72.6757 35.1458 67.9189 35.7168 65.7839 35.97C65.1334 36.0495 65.0341 35.4834 65.62 35.0763C69.4085 32.4099 75.6251 33.1795 76.35 34.0733C77.075 34.972 76.1614 41.2035 72.6012 44.1777C72.055 44.6345 71.5337 44.3912 71.777 43.7855C72.5764 41.7894 74.3689 37.3156 73.5198 36.2282Z" fill="#E6E6E6"/>
<path fill-rule="evenodd" clip-rule="evenodd" d="M65.9344 16.2538V13.6619C65.9344 13.2696 66.2324 13.0065 66.5899 13.0065H78.1938C78.5662 13.0065 78.8642 13.2746 78.8642 13.6619V15.8814C78.8592 16.2538 78.5464 16.7404 77.9902 17.51L71.9772 26.0951C74.2116 26.0405 76.5702 26.3731 78.596 27.5152C79.0528 27.7733 79.177 28.1507 79.2117 28.5231V31.2888C79.2117 31.6662 78.7946 32.1081 78.3577 31.8797C74.7876 30.0077 70.0457 29.8042 66.0983 31.8995C65.6961 32.118 65.2741 31.6811 65.2741 31.3037V28.677C65.2741 28.255 65.279 27.535 65.7011 26.8945L72.6674 16.9042H66.6048C66.2324 16.9042 65.9344 16.6411 65.9344 16.2538Z" fill="#E6E6E6"/>
<path fill-rule="evenodd" clip-rule="evenodd" d="M23.605 32.4259H20.0746C19.737 32.4011 19.4689 32.1478 19.444 31.8251V13.7066C19.444 13.3441 19.7469 13.0562 20.1243 13.0562H23.4163C23.7589 13.071 24.032 13.3342 24.0568 13.6619V16.0304H24.1214C24.9804 13.7414 26.5941 12.6738 28.7689 12.6738C30.9785 12.6738 32.3588 13.7414 33.3519 16.0304C34.206 13.7414 36.1474 12.6738 38.2279 12.6738C39.7075 12.6738 41.3262 13.2846 42.3143 14.655C43.4315 16.1793 43.2031 18.3939 43.2031 20.3353L43.1982 31.7705C43.1982 32.1329 42.8953 32.4259 42.5179 32.4259H38.9925C38.64 32.4011 38.357 32.118 38.357 31.7705V22.1675C38.357 21.4029 38.4265 19.4962 38.2577 18.7712C37.9945 17.5547 37.205 17.2121 36.1822 17.2121C35.3281 17.2121 34.4344 17.7831 34.0719 18.6968C33.7094 19.6104 33.7442 21.1397 33.7442 22.1675V31.7705C33.7442 32.1329 33.4413 32.4259 33.0639 32.4259H29.5385C29.181 32.4011 28.903 32.118 28.903 31.7705L28.898 22.1675C28.898 20.1466 29.2307 17.1724 26.7232 17.1724C24.1859 17.1724 24.2852 20.0722 24.2852 22.1675V31.7705C24.2852 32.1329 23.9823 32.4259 23.605 32.4259Z" fill="#E6E6E6"/>
<path fill-rule="evenodd" clip-rule="evenodd" d="M88.8543 12.6738C94.0927 12.6738 96.9279 17.1724 96.9279 22.8925C96.9279 28.4189 93.7948 32.8033 88.8543 32.8033C83.7102 32.8033 80.9097 28.3047 80.9097 22.6988C80.9097 17.0582 83.7449 12.6738 88.8543 12.6738ZM88.884 16.373C86.2822 16.373 86.1184 19.9182 86.1184 22.1278C86.1184 24.3423 86.0836 29.0693 88.8543 29.0693C91.5902 29.0693 91.7193 25.256 91.7193 22.9322C91.7193 21.4029 91.6547 19.5756 91.1929 18.1258C90.7957 16.8646 90.0062 16.373 88.884 16.373Z" fill="#E6E6E6"/>
<path fill-rule="evenodd" clip-rule="evenodd" d="M103.721 32.4259H100.205C99.8526 32.4011 99.5696 32.118 99.5696 31.7705L99.5646 13.647C99.5944 13.3143 99.8874 13.0562 100.245 13.0562H103.517C103.825 13.071 104.078 13.2796 104.148 13.5626V16.3333H104.212C105.2 13.8556 106.586 12.6738 109.024 12.6738C110.607 12.6738 112.152 13.2448 113.145 14.8089C114.068 16.2588 114.068 18.6968 114.068 20.4495V31.8549C114.029 32.1727 113.736 32.4259 113.388 32.4259H109.848C109.525 32.4011 109.257 32.1627 109.222 31.8549V22.0136C109.222 20.0324 109.451 17.1327 107.013 17.1327C106.154 17.1327 105.364 17.7087 104.972 18.5826C104.475 19.6898 104.411 20.7921 104.411 22.0136V31.7705C104.406 32.1329 104.098 32.4259 103.721 32.4259Z" fill="#E6E6E6"/>
<path fill-rule="evenodd" clip-rule="evenodd" d="M56.6841 23.7713C56.6841 25.1467 56.7188 26.2937 56.0237 27.5152C55.4626 28.5082 54.5688 29.119 53.5807 29.119C52.2252 29.119 51.4307 28.0862 51.4307 26.5618C51.4307 23.5528 54.1269 23.0066 56.6841 23.0066V23.7713ZM60.2442 32.3762C60.0108 32.5848 59.6732 32.5997 59.41 32.4606C58.2382 31.4874 58.0247 31.0356 57.3842 30.1071C55.4477 32.0833 54.0723 32.6741 51.5648 32.6741C48.5906 32.6741 46.2817 30.8419 46.2817 27.1726C46.2817 24.3076 47.8309 22.3562 50.0454 21.4028C51.962 20.5587 54.6383 20.4098 56.6841 20.1764V19.7196C56.6841 18.8804 56.7486 17.8874 56.2521 17.1624C55.8251 16.512 55.0008 16.2439 54.2709 16.2439C52.9253 16.2439 51.7287 16.934 51.4357 18.3641C51.3761 18.6818 51.1428 18.9947 50.82 19.0095L47.3989 18.6421C47.1109 18.5776 46.7882 18.3442 46.8726 17.9023C47.6571 13.7513 51.4109 12.5 54.7674 12.5C56.4854 12.5 58.7298 12.9568 60.0853 14.2577C61.8033 15.8615 61.6395 18.0016 61.6395 20.3303V25.8319C61.6395 27.4854 62.3247 28.2103 62.9702 29.1041C63.1936 29.4218 63.2433 29.8042 62.9553 30.0425C62.2353 30.6433 60.9542 31.7605 60.2491 32.3861L60.2442 32.3762Z" fill="#E6E6E6"/>
<path fill-rule="evenodd" clip-rule="evenodd" d="M10.4021 23.7713C10.4021 25.1467 10.4369 26.2937 9.74173 27.5151C9.18064 28.5082 8.29185 29.1189 7.29878 29.1189C5.94325 29.1189 5.15376 28.0862 5.15376 26.5618C5.15376 23.5528 7.84994 23.0066 10.4021 23.0066V23.7713ZM13.9623 32.3762C13.7289 32.5847 13.3912 32.5996 13.1281 32.4606C11.9563 31.4874 11.7477 31.0356 11.1022 30.107C9.16575 32.0832 7.79532 32.6741 5.28286 32.6741C2.31359 32.6741 -0.000244141 30.8419 -0.000244141 27.1725C-0.000244141 24.3075 1.5539 22.3562 3.76347 21.4028C5.68009 20.5587 8.3564 20.4098 10.4021 20.1764V19.7196C10.4021 18.8804 10.4667 17.8874 9.9751 17.1624C9.54311 16.512 8.71887 16.2439 7.99393 16.2439C6.64833 16.2439 5.44672 16.934 5.15376 18.364C5.09418 18.6818 4.86081 18.9946 4.54303 19.0095L1.11695 18.6421C0.828965 18.5776 0.511184 18.3442 0.590629 17.9023C1.38012 13.7513 5.12894 12.5 8.4855 12.5C10.2035 12.5 12.4478 12.9568 13.8034 14.2577C15.5214 15.8615 15.3575 18.0016 15.3575 20.3303V25.8319C15.3575 27.4854 16.0427 28.2103 16.6882 29.1041C16.9166 29.4218 16.9663 29.8042 16.6783 30.0425C15.9583 30.6433 14.6773 31.7605 13.9722 32.3861L13.9623 32.3762Z" fill="#E6E6E6"/>
</g>
<defs>
<clipPath id="clip0_31_3482">
<rect width="114.583" height="50" fill="white"/>
</clipPath>
</defs>
</svg>
