<svg width="139" height="50" viewBox="0 0 139 50" fill="none" xmlns="http://www.w3.org/2000/svg">
<g clip-path="url(#clip0_31_3486)">
<path d="M15.2448 6.25H0V42.7083L15.2448 6.25Z" fill="#E6E6E6"/>
<path d="M25.9717 6.25H41.1966V42.7083L25.9717 6.25Z" fill="#E6E6E6"/>
<path d="M20.6069 19.6875L30.3099 42.7086H23.9438L21.0439 35.3792H13.9429L20.6069 19.6875Z" fill="#E6E6E6"/>
<path d="M66.0664 29.4343L67.864 34.5887C67.9236 34.7178 68.013 34.7774 68.1719 34.7774H71.628C71.8167 34.7774 71.8465 34.688 71.8167 34.4993L64.676 14.6662C64.6462 14.5073 64.6164 14.4775 64.4575 14.4775H60.1671C60.048 14.4775 59.9784 14.5669 59.9784 14.696C59.9188 15.7388 59.8295 16.0566 59.7004 16.3645L53.3343 34.4695C53.3045 34.688 53.374 34.7774 53.5528 34.7774H56.6415C56.8302 34.7774 56.9196 34.7178 56.9891 34.5291L58.6874 29.4343H66.0664ZM59.6706 26.0675C60.6041 23.247 61.8356 19.632 62.3322 17.5662H62.362C62.9777 19.7313 64.4277 24.0217 65.0832 26.0675H59.6706Z" fill="#E6E6E6"/>
<path d="M80.9963 35.0843C82.8534 35.0843 84.8298 34.7467 86.8359 33.8826C86.9949 33.823 87.0246 33.7535 87.0246 33.6046C86.9651 33.0484 86.8955 32.244 86.8955 31.6282V12.9571C86.8955 12.8379 86.8955 12.7783 86.7466 12.7783H83.3798C83.2507 12.7783 83.1911 12.8379 83.1911 12.9968V19.3231C82.6647 19.2636 82.2973 19.2338 81.8603 19.2338C76.4278 19.2338 73.0908 22.819 73.0908 27.2981C73.0908 32.4922 76.5172 35.0843 80.9963 35.0843ZM83.1911 31.6282C82.6349 31.807 82.0192 31.8765 81.3935 31.8765C78.9305 31.8765 76.9144 30.4861 76.9144 27.1094C76.9144 24.12 78.9901 22.3522 81.7411 22.3522C82.2973 22.3522 82.7839 22.4118 83.1911 22.5707V31.6282Z" fill="#E6E6E6"/>
<path d="M97.7645 19.2334C93.1265 19.2334 90.2563 22.7889 90.2563 27.1786C90.2563 31.1015 92.5406 35.084 97.695 35.084C102.055 35.084 105.114 31.8761 105.114 27.0792C105.114 22.8484 102.522 19.2334 97.7645 19.2334ZM97.5758 22.3519C100.198 22.3519 101.31 24.6063 101.31 27.1786C101.31 30.3566 99.6714 31.9357 97.7645 31.9357C95.4108 31.9357 94.0204 29.9594 94.0204 27.109C94.0204 24.1793 95.5001 22.3519 97.5758 22.3519Z" fill="#E6E6E6"/>
<path d="M108.595 12.7783C108.466 12.7783 108.376 12.8379 108.376 12.9968V34.1309C108.376 34.2203 108.466 34.3792 108.595 34.409C110.075 34.8659 111.624 35.0843 113.223 35.0843C117.801 35.0843 122.251 32.244 122.251 26.5234C122.251 22.382 119.41 19.2338 114.961 19.2338C113.938 19.2338 112.985 19.3927 112.15 19.6707L112.111 13.0266C112.111 12.8081 112.051 12.7783 111.833 12.7783H108.595ZM118.447 26.9008C118.447 30.3272 116.103 31.9361 113.571 31.9361C113.044 31.9361 112.577 31.9063 112.15 31.7772V22.7594C112.637 22.5707 113.223 22.4118 114.306 22.4118C116.749 22.4118 118.447 23.9611 118.447 26.9008Z" fill="#E6E6E6"/>
<path d="M134.816 28.0128C136.326 28.0128 137.567 27.983 137.994 27.8837C138.153 27.8539 138.213 27.7943 138.242 27.6652C138.332 27.3275 138.372 26.6224 138.372 25.7584C138.372 22.8187 136.604 19.2334 132.035 19.2334C127.367 19.2334 124.775 23.0371 124.775 27.3275C124.775 31.1313 126.782 35.084 132.403 35.084C134.508 35.084 135.869 34.7463 137.041 34.1902C137.16 34.1306 137.219 34.0313 137.219 33.8525V31.2802C137.219 31.1313 137.13 31.1015 137.041 31.1611C135.869 31.6576 134.598 31.9059 133.207 31.9059C130.059 31.9059 128.629 30.1679 128.539 28.0128H134.816ZM128.539 25.3512C128.788 23.8416 129.741 22.2029 131.876 22.2029C134.23 22.2029 134.846 24.1793 134.846 25.0731C134.846 25.1029 134.846 25.232 134.846 25.3214C134.717 25.3512 134.319 25.3512 133.148 25.3512H128.539Z" fill="#E6E6E6"/>
</g>
<defs>
<clipPath id="clip0_31_3486">
<rect width="138.542" height="50" fill="white"/>
</clipPath>
</defs>
</svg>
