<svg width="258" height="92" viewBox="0 0 258 92" fill="none" xmlns="http://www.w3.org/2000/svg">
<rect x="0.5" y="0.5" width="257" height="91" rx="11.5" stroke="#262626"/>
<rect x="24.5" y="14.5" width="63" height="63" rx="7.5" fill="url(#paint0_linear_31_7382)"/>
<rect x="24.5" y="14.5" width="63" height="63" rx="7.5" stroke="url(#paint1_linear_31_7382)"/>
<g clip-path="url(#clip0_31_7382)">
<path d="M68 46C68 39.3726 62.6274 34 56 34C49.3726 34 44 39.3726 44 46C44 51.9895 48.3882 56.954 54.125 57.8542V49.4687H51.0781V46H54.125V43.3562C54.125 40.3488 55.9166 38.6875 58.6576 38.6875C59.9701 38.6875 61.3438 38.9219 61.3438 38.9219V41.875H59.8306C58.34 41.875 57.875 42.8001 57.875 43.75V46H61.2031L60.6711 49.4687H57.875V57.8542C63.6118 56.954 68 51.9895 68 46Z" fill="#0A84FF"/>
</g>
<rect x="102.5" y="14.5" width="63" height="63" rx="7.5" fill="url(#paint2_linear_31_7382)"/>
<rect x="102.5" y="14.5" width="63" height="63" rx="7.5" stroke="url(#paint3_linear_31_7382)"/>
<path d="M129.55 55.75C138.605 55.75 143.558 48.2467 143.558 41.7419C143.558 41.5309 143.554 41.3153 143.544 41.1044C144.508 40.4075 145.339 39.5443 146 38.5553C145.103 38.9546 144.15 39.2154 143.174 39.3287C144.201 38.7129 144.971 37.7455 145.339 36.6058C144.373 37.1786 143.316 37.5826 142.213 37.8006C141.471 37.0116 140.489 36.4891 139.42 36.3141C138.35 36.139 137.253 36.3211 136.298 36.8321C135.342 37.3431 134.582 38.1547 134.134 39.1413C133.686 40.1279 133.575 41.2346 133.82 42.2903C131.862 42.1921 129.948 41.6837 128.2 40.7981C126.452 39.9125 124.91 38.6694 123.673 37.1495C123.044 38.2332 122.852 39.5156 123.135 40.7361C123.418 41.9565 124.155 43.0234 125.196 43.72C124.415 43.6952 123.65 43.4847 122.966 43.1059V43.1669C122.965 44.3041 123.358 45.4066 124.078 46.2868C124.799 47.167 125.801 47.7706 126.916 47.995C126.192 48.1931 125.432 48.222 124.695 48.0794C125.009 49.0574 125.622 49.9129 126.446 50.5263C127.27 51.1398 128.265 51.4806 129.292 51.5012C127.548 52.8711 125.394 53.6141 123.177 53.6106C122.783 53.61 122.39 53.5859 122 53.5384C124.253 54.9837 126.874 55.7514 129.55 55.75Z" fill="#0A84FF"/>
<rect x="180.5" y="14.5" width="63" height="63" rx="7.5" fill="url(#paint4_linear_31_7382)"/>
<rect x="180.5" y="14.5" width="63" height="63" rx="7.5" stroke="url(#paint5_linear_31_7382)"/>
<g clip-path="url(#clip1_31_7382)">
<path d="M222.223 34H201.772C200.792 34 200 34.7734 200 35.7297V56.2656C200 57.2219 200.792 58 201.772 58H222.223C223.203 58 224 57.2219 224 56.2703V35.7297C224 34.7734 223.203 34 222.223 34ZM207.12 54.4516H203.558V42.9953H207.12V54.4516ZM205.339 41.4344C204.195 41.4344 203.272 40.5109 203.272 39.3719C203.272 38.2328 204.195 37.3094 205.339 37.3094C206.478 37.3094 207.402 38.2328 207.402 39.3719C207.402 40.5062 206.478 41.4344 205.339 41.4344ZM220.452 54.4516H216.894V48.8828C216.894 47.5562 216.87 45.8453 215.042 45.8453C213.191 45.8453 212.909 47.2937 212.909 48.7891V54.4516H209.356V42.9953H212.769V44.5609H212.816C213.289 43.6609 214.452 42.7094 216.181 42.7094C219.786 42.7094 220.452 45.0813 220.452 48.1656V54.4516Z" fill="#0A84FF"/>
</g>
<defs>
<linearGradient id="paint0_linear_31_7382" x1="56" y1="14" x2="56" y2="78" gradientUnits="userSpaceOnUse">
<stop stop-color="#242424"/>
<stop offset="1" stop-color="#242424" stop-opacity="0"/>
</linearGradient>
<linearGradient id="paint1_linear_31_7382" x1="56" y1="14" x2="56" y2="78" gradientUnits="userSpaceOnUse">
<stop stop-color="#2E2E2E"/>
<stop offset="1" stop-color="#2E2E2E" stop-opacity="0"/>
</linearGradient>
<linearGradient id="paint2_linear_31_7382" x1="134" y1="14" x2="134" y2="78" gradientUnits="userSpaceOnUse">
<stop stop-color="#242424"/>
<stop offset="1" stop-color="#242424" stop-opacity="0"/>
</linearGradient>
<linearGradient id="paint3_linear_31_7382" x1="134" y1="14" x2="134" y2="78" gradientUnits="userSpaceOnUse">
<stop stop-color="#2E2E2E"/>
<stop offset="1" stop-color="#2E2E2E" stop-opacity="0"/>
</linearGradient>
<linearGradient id="paint4_linear_31_7382" x1="212" y1="14" x2="212" y2="78" gradientUnits="userSpaceOnUse">
<stop stop-color="#242424"/>
<stop offset="1" stop-color="#242424" stop-opacity="0"/>
</linearGradient>
<linearGradient id="paint5_linear_31_7382" x1="212" y1="14" x2="212" y2="78" gradientUnits="userSpaceOnUse">
<stop stop-color="#2E2E2E"/>
<stop offset="1" stop-color="#2E2E2E" stop-opacity="0"/>
</linearGradient>
<clipPath id="clip0_31_7382">
<rect width="24" height="24" fill="white" transform="translate(44 34)"/>
</clipPath>
<clipPath id="clip1_31_7382">
<rect width="24" height="24" fill="white" transform="translate(200 34)"/>
</clipPath>
</defs>
</svg>
